<svg id="blackbeard_pirates" data-name="blackbeard pirates" xmlns="http://www.w3.org/2000/svg" viewBox="0 0 269.92 178.32"><defs><style>.cls-1{fill:#fff;}.cls-1,.cls-2,.cls-3{stroke:#000;stroke-miterlimit:10;}.cls-3{stroke-width:1.25px;}</style></defs><title>blackbeard</title><g id="bones"><path id="N_bone" data-name="N bone" class="cls-1" d="M128.4,50.38h10.5v-34c15-4,6-21-5-14-14-8-20,12-6,14Z"/><path id="NE_bone" data-name="NE bone" class="cls-1" d="M161.9,63.38l57-38c-5-14,16-18,15-2,13,3,3,23-9,11-13.69,9-26.55,16.47-38,24-5.5-.51-13.09,4.87-21,10Z"/><path id="E_bone" data-name="E bone" class="cls-1" d="M224.9,86.38v10h29c-1,14,22,8,13-5,10-12-13-21-13-5Z"/><path id="SE_bone" data-name="SE bone" class="cls-1" d="M162.9,103.38l-6,4,63,41c-6,14,15,17,14,3,13-7,1-24-9-12l-18-12c-9.47-1.28-18-3.46-25-7,.75-2.25,1.43-4.28,2-6Z"/><path id="S_bone" data-name="S bone" class="cls-1" d="M128.9,117.38l10,1v44c14-1,9,23-6,13-13,8-20-11-4-14Z"/><path id="SW_bone" data-name="SW bone" class="cls-1" d="M110.9,107.38l-7-4-21,11,3,6a66.19,66.19,0,0,1-23,7l-19,12c-11-10-23,5-9,12,0,14,21,11,14-3Z"/><path id="NW_bone" data-name="NW bone" class="cls-1" d="M41.9,86.38v10h-26c-3,16-21,7-13-5-9-11,10-22,13-5Z"/><path class="cls-1" d="M105.9,63.38l-4,5C95,63,88,58.64,80.9,58.38l-37-24c-9.93,9.94-24-5-9-11-1-14,20-14,14,2C66.9,39.38,95.9,54.38,105.9,63.38Z"/></g><g id="right_skull" data-name="right skull"><path id="right_skull-2" data-name="right skull" class="cls-1" d="M166.9,70.38a57,57,0,0,1,21-10c21-1,31,11,35,22a141.39,141.39,0,0,1,0,16c-.84,1.64-2.5,2.64-5,3-.12-1.43-.35-2.64-1-3-1.11,1.49-.84,3.2,0,5h4c-2.84,4.15-6.09,9-6,15-.16,2.75-.59,5.39-1,8a9.62,9.62,0,0,1-4,0v-6l-2-1c-1.09.22-1.07,3.05-1,6-1.14.54-2.9.45-5,0l1-7h-3c-.79,1.34-.94,3.61-1,6a14.78,14.78,0,0,1-6-1l2-6c-.16-2.44-1.14-2.84-3-1l-2,5a10.61,10.61,0,0,1-6-2,19.48,19.48,0,0,1,3-6l-22-11C171.9,93.38,171.9,81.38,166.9,70.38Z"/><path id="eye" class="cls-2" d="M191.9,80.38c3,1,7,19,19,20,2,0,3-4,4-4,0,2-2.4,7.22-6,6a35,35,0,0,1-18-7C189.57,89.13,189.39,83.74,191.9,80.38Z"/><circle id="nose" class="cls-3" cx="211.4" cy="110.88" r="2.5"/></g><g id="left_skull" data-name="left skull"><path id="right_skull-3" data-name="right skull" class="cls-1" d="M99.9,70.38a57,57,0,0,0-21-10c-21-1-31,11-35,22a141.39,141.39,0,0,0,0,16c.84,1.64,2.5,2.64,5,3,.12-1.43.35-2.64,1-3,1.1,1.49.84,3.2,0,5h-4c2.84,4.15,6.09,9,6,15,.16,2.75.59,5.39,1,8a9.62,9.62,0,0,0,4,0v-6l2-1c1.09.22,1.07,3.05,1,6,1.14.54,2.9.45,5,0l-1-7h3c.79,1.34.94,3.61,1,6a14.78,14.78,0,0,0,6-1l-2-6c.16-2.44,1.14-2.84,3-1l2,5a10.61,10.61,0,0,0,6-2,19.48,19.48,0,0,0-3-6l22-11C94.9,93.38,94.9,81.38,99.9,70.38Z"/><path id="eye-2" data-name="eye" class="cls-2" d="M74.9,80.38c-3,1-7,19-19,20-2,0-3-4-4-4,0,2,2.4,7.22,6,6a35,35,0,0,0,18-7C77.23,89.13,77.41,83.74,74.9,80.38Z"/><circle id="nose-2" data-name="nose" class="cls-3" cx="55.4" cy="110.88" r="2.5"/></g><g id="mid_skull" data-name="mid skull"><path id="mid_skull-2" data-name="mid skull" class="cls-1" d="M109.9,61.38c11-11,34-12,46-1,17.92,18.18,17,37-3,46l3,6-7,3-2-5h-4l1,6h-8v-6h-4v6l-6-1v-6h-3l-2,5-7-1,2-7C91.9,100.38,93.9,79.38,109.9,61.38Z"/><path id="right_aye" data-name="right aye" class="cls-2" d="M134.9,90.38c3,9,19-1,26-9,4,0,1,11-4,15-5.1,1.05-11.64,1.13-20,0C135.32,94.85,133.9,90.38,134.9,90.38Z"/><path id="left_eye" data-name="left eye" class="cls-2" d="M131.9,89.38c0,10-14,4-25-8-4-1-1.35,11.13,4,15,3.93,1.65,14.93,1.63,19,0C131.9,94.81,133.9,89.38,131.9,89.38Z"/><ellipse id="nose-3" data-name="nose" class="cls-2" cx="133.9" cy="100.38" rx="4" ry="2"/></g></svg>