<svg id="buggy_pirates" data-name="buggy pirates" xmlns="http://www.w3.org/2000/svg" viewBox="0 0 243.64 244.22"><defs><style>.cls-1{fill:#fff;stroke:#000;stroke-miterlimit:10;}.cls-2{fill:red;}</style></defs><title>buggy</title><path id="top_right_bone" data-name="top right bone" class="cls-1" d="M175.16,54.94l15-16c-30-25,24-61,32-15,38,5,19,58-17,32l-17,16A82.23,82.23,0,0,0,175.16,54.94Z" transform="translate(0)"/><path id="top_left_bone" data-name="top left bone" class="cls-1" d="M68.79,52.34,53.06,37.06C81.85,10.68,26.23-22.75,20.39,23.57-17.33,30.35,4.13,82.4,38.87,54.74L56.6,69.93A81.84,81.84,0,0,1,68.79,52.34Z" transform="translate(0)"/><path id="bottom_right_bone" data-name="bottom right bone" class="cls-1" d="M155.16,153.94l9-4,42,41c25-28,60,22,16,32-7,42-61,12-33-17,1.33-2.82-13-13-23-26C162.91,171.5,158.57,162.83,155.16,153.94Z" transform="translate(0)"/><path id="bottom_left_bone" data-name="bottom left bone" class="cls-1" d="M89.14,152.94l-9-4-42,41c-25-28-60,22-16,32,7,42,61,12,33-17-1.33-2.82,14-13,24-26Q84,166.28,89.14,152.94Z" transform="translate(0)"/><path id="chin" class="cls-1" d="M82.16,176.94c23,14,50.94,15.41,80,0a31.61,31.61,0,0,1,5,13c-10,27-78,28-90,2Q76.27,186.63,82.16,176.94Z" transform="translate(0)"/><g id="teeth"><path class="cls-1" d="M87.16,162.94a29,29,0,0,1,4-9l13,4-2,11C96.39,167.55,91.22,165.69,87.16,162.94Z" transform="translate(0)"/><path class="cls-1" d="M106.16,157.94a46.35,46.35,0,0,0,15,2v11a62.49,62.49,0,0,1-17-2C104.92,165.6,105.51,161.85,106.16,157.94Z" transform="translate(0)"/><path class="cls-1" d="M123.16,159.94h14l2,9c-2.46,1.57-8.39,2.05-16,2Z" transform="translate(0)"/><path class="cls-1" d="M139.16,158.94c5.48-1.65,9.49-3,14-4a83.86,83.86,0,0,1,3,8c-4.77,2.05-9.41,4.12-14,6C140.93,165.09,139.16,161.94,139.16,158.94Z" transform="translate(0)"/><path class="cls-1" d="M157.16,164.94a33.69,33.69,0,0,0,4,10c-4.33,3.17-9.65,4.84-16,7a70.22,70.22,0,0,1-2-11C147.84,170.31,152.5,167.5,157.16,164.94Z" transform="translate(0)"/><path class="cls-1" d="M124.15,173c6,.26,11-1.08,17-2.08a103.92,103.92,0,0,0,2,12c-7,1-14.52,3.41-20,3.08A54.63,54.63,0,0,0,124.15,173Z" transform="translate(0)"/><path class="cls-1" d="M103.16,170.94a60.33,60.33,0,0,0,19,2,48.41,48.41,0,0,1-1,13c-7.36.39-14.09-.48-20-3A27.37,27.37,0,0,0,103.16,170.94Z" transform="translate(0)"/><path class="cls-1" d="M101.16,170.94a91.65,91.65,0,0,1-14-5c-1.85.22-2.6,4.6-4,9,5.83,2.95,10.51,5.34,16,7A35.21,35.21,0,0,0,101.16,170.94Z" transform="translate(0)"/></g><path id="head" class="cls-1" d="M57.66,73.44c19.5-49.5,98.5-51.5,128-1,11.5,21.5,7.5,52.5-17,72-40.5,26.5-90.5,9.5-109-17C51,110.54,48.17,92.83,57.66,73.44Z" transform="translate(0)"/><path id="eyes" d="M134.16,91.94c2.66-9.46,8-16.15,17-19,1-6-12.87-22.24-12-25,1-1,13.54,16.25,16,24,14.39,1.22,22.17,8.39,25,20,.93,1.61,7,0,8,2-1,2-8.84.33-8,2-2,11-7.48,18.62-16,21a81.71,81.71,0,0,1-2,24c-2,1,1-23-2-24a24.52,24.52,0,0,1-12-3c6,44-58,40-53,1-3.41,2.39-7.9,2.76-13,2,1,14.82.93,22.42,0,24-1.84-1.9-2.71-11.23-3-25-8-3-12.43-8.92-15-20-.14-.84-1.88-1.55-7-2,.17-.83,2.26-1.14,6-1,3-13.43,12.34-20.07,27-21,6-13,13-25,17-26-2,4-13,19-14,27,9.93,4,14.82,10.6,16,19,4.15.45,9.2,1,9,2l-10,1c-.62,2.45.12,4.07,2,5,5.78-4,14.24-3.75,25,0a23,23,0,0,0-1-5,41.77,41.77,0,0,1-10-1C124,93.19,127.43,92.53,134.16,91.94Z" transform="translate(0)"/><path id="nose" class="cls-2" d="M98.16,113.94c8-20,43-20,48,3,1.31,18.76-11,26-25,26C103.16,140.94,96.16,129.94,98.16,113.94Z" transform="translate(0)"/></svg>