<svg id="donquixote_pirates" data-name="donquixote pirates" xmlns="http://www.w3.org/2000/svg" viewBox="0 0 313.01 313.01"><defs><style>.cls-1,.cls-2{stroke:#000;stroke-miterlimit:10;}.cls-1{stroke-width:1.01px;}.cls-2{fill:#efc631;}</style></defs><title>donquixote</title><circle id="black_circle" data-name="black circle" class="cls-1" cx="156.51" cy="156.51" r="156"/><path id="right_half_face" data-name="right half face" class="cls-2" d="M237.51,76.51l18-20c26.21,25.57,41,58,40,97-61.09,38.12-119,48-162,41l13-16c13,6,27-2,18-18l18-21C225.51,199.51,306.51,117.51,237.51,76.51Z"/><path id="left_half_face" data-name="left half face" class="cls-2" d="M222.51,72.51l22-25c-98-75-224-10-229,105a249.21,249.21,0,0,0,102,41l58-67C173.5,89.94,189,71.77,222.51,72.51Z"/><circle id="left_eye" data-name="left eye" class="cls-1" cx="94.01" cy="115.01" r="43.5"/><g id="teeth"><path class="cls-2" d="M269.51,183.51a72.26,72.26,0,0,0,26-15c-1.37,23.89-7,43-17,46Z"/><path class="cls-2" d="M217.51,202.51c15.87-3.67,28.58-8.44,39-14l10,32c-10.9,5.56-25.18,9.62-41,13Z"/><path class="cls-2" d="M162.51,209.51a166.09,166.09,0,0,0,42-4,90.62,90.62,0,0,1,7,32c-13.76,3.24-30.68,4.55-49,5Z"/><path class="cls-2" d="M120.51,207.51a94.48,94.48,0,0,0,29,2v34c-23.3-1-42.12-2.7-51-6C98.51,231.51,113.51,217.51,120.51,207.51Z"/><path class="cls-2" d="M57.51,190.51a96.85,96.85,0,0,0,32,11l-3,28c-1,1-2.9,3-4,4-14.49-3.37-26.92-7.53-36-13Z"/><path class="cls-2" d="M45.51,185.51l-30-17c3.17,23.94,8.78,41,18,48C38.51,215.51,38.51,197.51,45.51,185.51Z"/><path class="cls-2" d="M228.51,245.51c15.47-2.62,29.4-7,41-14,2,10-12.95,23.85-35,41Z"/><path class="cls-2" d="M162.51,256.51c19.07-.86,38-4.64,54-8,2.25,11.66,4.26,22.05,6,31-15.3,9.23-36.23,13.79-60,16Z"/><path class="cls-2" d="M149.51,255.51v40c-17,.52-39-4-57-16l3-28C117.61,254.78,137,256.78,149.51,255.51Z"/><path class="cls-2" d="M70.51,266.51c1.92,3.67,5.4,5.5,10,6,.78-8.3,1.31-15.27,1-18C78.38,255.76,74.56,260.55,70.51,266.51Z"/><path class="cls-2" d="M70.51,243.51c-2.14,5.57-6,10.1-11,14-11.06-10-18.08-18.46-17-24Z"/></g></svg>