<svg id="hear_pirate" data-name="hear pirate" xmlns="http://www.w3.org/2000/svg" viewBox="0 0 260.19 264.63"><defs><style>.cls-1{stroke:#000;stroke-miterlimit:10;}.cls-2{fill:#efc631;}</style></defs><title>heart</title><path id="black_outline" data-name="black outline" class="cls-1" d="M40.58,89.91l-16-11c-5.68,6.64-9.16,17.68-11,32H.58c4.73-31.48,18.83-58.11,44-79l9,11C44,48.4,37,56.82,31.58,66.91l16,10c16.77-21.69,41-39,76-41v-21c-7.28-1.93-20.15,1.58-34,6l-5-12c28-12,67-11,90,2l-4,10c-12.26-3.74-24-6.07-35-6v21c34.56,3.57,59,18.53,75,43l18-10c-5-9-13-17-22-26l8-11c24.2,21.85,39.33,48.12,45,79h-14l-11-31-18,10c14.08,26.26,14,57,0,87l19,9c4-7,7-16,10-31l14,1c-6.58,31.63-21.76,57.4-46,77l-8-10a163.63,163.63,0,0,0,24-25l-21-11c-13.54,24.52-38.74,38.37-74,43l1,21c13.52,0,24.27-2,32-6l5,11c-27.32,10.76-56.58,11.17-88,0l5-12c9,4,20,6.61,33,8v-22c-33-4.29-58.23-18.64-75-44l-18,11c4.18,10.16,12.33,18,22,25l-8,11q-36.94-30.94-43-79h12c.23,10.63,3.82,21.3,10,32l17-10C29.79,147,27.66,118.29,40.58,89.91Z"/><path id="head" class="cls-2" d="M45.58,131.91q85.2,22.31,167,0c6-40-34-83-84-85C85.58,46.91,40.58,86.91,45.58,131.91Z"/><g id="eyes"><circle id="right_eye" data-name="right eye" class="cls-1" cx="170.58" cy="105.91" r="25"/><circle id="left_eye" data-name="left eye" class="cls-1" cx="89.58" cy="105.91" r="25"/></g><circle id="nose" cx="129.08" cy="132.41" r="7"/><g id="teeth"><path class="cls-2" d="M45.58,143.91a28.21,28.21,0,0,0,11,4v28C50.68,165.4,45.58,153.91,45.58,143.91Z"/><path class="cls-2" d="M69.58,150.91a110.76,110.76,0,0,0,19,2v54c-7.62-3.66-14.24-8.09-19-14Z"/><path class="cls-2" d="M100.58,154.91l22,1v62c-9-.73-16.74-2.45-22-6Z"/><path class="cls-2" d="M136.58,155.91l21-1v58a57.31,57.31,0,0,1-21,5Z"/><path class="cls-2" d="M170.58,153.91c6,0,13-2,17-3v44c-5,5-9.76,8.9-17,12Z"/><path class="cls-2" d="M200.58,148.91l13-4c-1.39,10.38-6.15,21.85-13,34Z"/></g></svg>