<svg id="kuja_pirates" data-name="kuja pirates" xmlns="http://www.w3.org/2000/svg" viewBox="0 0 335.17 335.81"><defs><style>.cls-1{stroke:#000;stroke-miterlimit:10;}.cls-2{fill:#d90001;}</style></defs><title>kuja</title><g id="snake_hair" data-name="snake hair"><g id="snake_head" data-name="snake head"><path id="snake_head-2" data-name="snake head" class="cls-1" d="M224.85,108.06l-19-10c9-53,102-64,108-19-1,16-17,18-24,4-2,0,.24,10-1,10-5.07-4.81-6.55-11.41-4-20C258.54,67.37,232.85,80.06,224.85,108.06Z"/><circle id="snake_eyes" data-name="snake eyes" class="cls-2" cx="302.85" cy="79.06" r="5"/></g><g id="snake_head-3" data-name="snake head"><path id="snake_head-4" data-name="snake head" class="cls-1" d="M244,161l-7.44-20.14c42.14-33.38,118.64,20.64,93,58.1-11.44,11.23-24.68,2-20.52-13.07-1.48-1.34-6.51,7.59-7.43,6.76-.55-7,2.76-12.86,10.4-17.54C296.22,153.23,268.64,145.48,244,161Z"/><circle id="snake_eyes-2" data-name="snake eyes" class="cls-2" cx="321.35" cy="191.56" r="5"/></g><g id="snake_head-5" data-name="snake head"><path id="snake_head-6" data-name="snake head" class="cls-1" d="M222.78,209.15l6.39-20.5c53.76-.74,81.41,88.73,38.24,102.78-15.91,1.91-20.78-13.46-8.28-22.88-.36-2-9.78,2-10,.82,3.81-5.85,10-8.5,18.94-7.55C268.89,234.91,251.76,212,222.78,209.15Z"/><circle id="snake_eyes-3" data-name="snake eyes" class="cls-2" cx="265.42" cy="280.61" r="5"/></g><g id="snake_head-7" data-name="snake head"><path id="snake_head-8" data-name="snake head" class="cls-1" d="M189,244.5l20.1-7.54c33.59,42-20,118.74-57.64,93.29-11.28-11.39-2.14-24.67,13-20.58,1.33-1.49-7.62-6.47-6.8-7.4,7-.58,12.87,2.69,17.6,10.32C197,296.72,204.56,269.1,189,244.5Z"/><circle id="snake_eyes-4" data-name="snake eyes" class="cls-2" cx="158.75" cy="322.04" r="5"/></g><g id="snake_head-9" data-name="snake head"><path id="snake_head-10" data-name="snake head" class="cls-1" d="M128.61,240.08l20.2,7.28c-1.58,53.73-92.16,77.49-104.33,33.75-1.22-16,14.35-20.17,23.22-7.28,2-.27-1.62-9.87-.4-10C73,267.85,75.37,274.18,74,283,100.88,285,124.56,268.92,128.61,240.08Z"/><circle id="snake_eyes-5" data-name="snake eyes" class="cls-2" cx="55.38" cy="279.59" r="5"/></g><g id="snake_head-11" data-name="snake head"><path id="snake_head-12" data-name="snake head" class="cls-1" d="M94.21,188.51,110,203C87.77,252-4.95,238.84.75,193.8c5.06-15.22,21-13.06,24.23,2.26,1.93.52,2.32-9.72,3.52-9.41,3.67,5.95,3.42,12.7-1.25,20.36C51.24,219.24,79.32,213.53,94.21,188.51Z"/><circle id="snake_eyes-6" data-name="snake eyes" class="cls-2" cx="11.39" cy="196.61" r="5"/></g><g id="snake_head-13" data-name="snake head"><path id="snake_head-14" data-name="snake head" class="cls-1" d="M90.35,142.73l1.32,21.43C41.71,184-16,110.23,19.34,81.73c14.2-7.45,24.22,5.18,15.89,18.44,1,1.7,8.42-5.4,9.06-4.34-1.48,6.83-6.34,11.52-15,13.8C38.09,135.07,62.27,150.43,90.35,142.73Z"/><circle id="snake_eyes-7" data-name="snake eyes" class="cls-2" cx="25.06" cy="91.13" r="5"/></g><g id="snake_head-15" data-name="snake head"><path id="snake_head-16" data-name="snake head" class="cls-1" d="M115.61,96,102.93,113.3C51.83,96.61,54.6,3,100,3.68,115.68,7,115.31,23.14,100.43,28c-.29,2,9.92,1.23,9.75,2.45-5.51,4.31-12.25,4.81-20.38,1C80.31,56.68,89.09,84,115.61,96Z"/><circle id="snake_eyes-8" data-name="snake eyes" class="cls-2" cx="98.38" cy="14.56" r="5"/></g><g id="snake_head-17" data-name="snake head"><path id="snake_head-18" data-name="snake head" class="cls-1" d="M172.48,83.89l-21.35,2.19C129.28,37,200.64-23.68,230.55,10.47c8,13.88-4.19,24.4-17.77,16.62-1.67,1.1,5.73,8.19,4.7,8.88-6.88-1.2-11.77-5.87-14.4-14.44C178,31.36,163.65,56.14,172.48,83.89Z"/><circle id="snake_eyes-9" data-name="snake eyes" class="cls-2" cx="221.39" cy="16.56" r="5"/></g></g><path id="skull" class="cls-1" d="M132.85,209.06c-46-11-49-92,1-110,21.08-8.73,44-8,66,2,43,22,46,91-2,108v21c-4,7-14,7-17,0v-20h-7v20c-4,9-14,7-17,0v-20h-7v20c-4,7-13,8-17,0Z"/><circle id="right_eye" data-name="right eye" class="cls-2" cx="192.35" cy="160.56" r="23"/><circle id="left_eye" data-name="left eye" class="cls-2" cx="137.35" cy="160.56" r="23"/><circle id="nose" class="cls-2" cx="165.35" cy="190.56" r="9"/></svg>