<svg id="red_hair_pirate" data-name="red hair pirate" xmlns="http://www.w3.org/2000/svg" viewBox="0 0 391.21 311.35"><defs><style>.cls-1{fill:#fff;}.cls-1,.cls-2,.cls-3{stroke:#000;stroke-miterlimit:10;}.cls-2{fill:#cc2306;}#red_hair_pirate:hover{background-color:black; cursor:pointer; transition:background-color 1s ease;}</style></defs><title>red hair</title><g id="right_blade" data-name="right blade"><path class="cls-1" d="M288.38,75l49-44q-.37,36.5-44,73C293.5,93.21,292,83.44,288.38,75Z"/><path class="cls-1" d="M293.38,109c32-24,52-53,49-83a148.9,148.9,0,0,0,24-21c16,55-17,103-80,141C291.39,131.47,294.43,118.55,293.38,109Z"/></g><g id="left_blade" data-name="left blade"><path class="cls-1" d="M103.39,71l-49-44q.39,36.5,44,73C98.28,89.21,99.78,79.44,103.39,71Z"/><path class="cls-1" d="M98.39,105c-32-24-52-53-49-83a149.35,149.35,0,0,1-24-21c-16,55,17,103,80,141C100.39,127.47,97.34,114.55,98.39,105Z"/></g><g id="right_handle" data-name="right handle"><path class="cls-1" d="M386.38,267c12,13-3,37-20,33Z"/><path class="cls-1" d="M361.38,298c-15-13,3-43,22-34Z"/><path class="cls-2" d="M358.1,256.86c2.41,0,4.16.49,5.08,3.89L347.67,283.1c-2-.13-4.68-.89-5.09-3.89Z"/><path class="cls-2" d="M344.38,250c5.31-.78,7,1,8,6l-14,21c-5-.68-7.35-2.76-8-7Z"/><path class="cls-2" d="M318.38,261c.56,6.49,3.47,8,8,6l13-21c-.18-6.51-1.86-7.32-8-5Z"/><path class="cls-2" d="M327.38,238l-14,21c-4.22.74-7.12-.43-7-6l14-21C325,231.23,327,233.65,327.38,238Z"/><path class="cls-1" d="M295.38,268c1-9,23-51,35-51,18,9,19-2,7-10-6.1-3.63-12.45-2.32-19,3l-32,51c-2.34,6.37-1.92,11.52,0,16l11,9c5.55-.31,9.32-2,6-9Z"/><path class="cls-1" d="M299.38,223c2.75-1.33,3.92.32,4,4l-13,20c-3.62,1.26-4.32-.79-4-4Z"/><path class="cls-1" d="M290.38,229l6-9-23-19c-7.12-.39-9.53,3.51-8,11Z"/><path class="cls-1" d="M262.38,218c-.92,5.18-1.4,10.11,0,14l18,9c3.77-2.29,5.89-5.29,4-10C274.78,225.3,266.38,218,262.38,218Z"/></g><g id="right_handle-2" data-name="right handle"><path class="cls-1" d="M4.83,266c-12,13,3,37,20,33Z"/><path class="cls-1" d="M29.83,297c15-13-3-43-22-34Z"/><path class="cls-2" d="M33.12,255.86c-2.41,0-4.17.49-5.09,3.89L43.54,282.1c2-.13,4.68-.89,5.09-3.89Z"/><path class="cls-2" d="M46.83,249c-5.31-.78-7,1-8,6l14,21c5-.68,7.35-2.76,8-7Z"/><path class="cls-2" d="M72.83,260c-.56,6.49-3.47,8-8,6l-13-21c.18-6.51,1.86-7.32,8-5Z"/><path class="cls-2" d="M63.83,237l14,21c4.22.74,7.12-.43,7-6l-14-21C66.17,230.23,64.2,232.65,63.83,237Z"/><path class="cls-1" d="M95.83,267c-1-9-23-51-35-51-18,9-19-2-7-10,6.1-3.63,12.45-2.32,19,3l32,51c2.34,6.37,1.92,11.52,0,16l-11,9c-5.55-.31-9.32-2-6-9Z"/><path class="cls-1" d="M91.83,222c-2.75-1.33-3.92.32-4,4l13,20c3.62,1.26,4.32-.79,4-4Z"/><path class="cls-1" d="M100.83,228l-6-9,23-19c7.12-.39,9.53,3.51,8,11Z"/><path class="cls-1" d="M128.83,217c.93,5.18,1.4,10.11,0,14l-18,9c-3.77-2.29-5.89-5.29-4-10C116.43,224.3,124.83,217,128.83,217Z"/></g><path id="jaw" class="cls-1" d="M131.38,205c3.41,30.64,7.87,59.62,14,86,12,27,93,26,99,0a852.85,852.85,0,0,0,15-86c-3.86-4.19-9.53,2.1-16,13,.45,26.07-.74,49-7,62,0,19-79,22-83,0-5.69-20.59-7.72-42.35-7-65C144.51,206.07,140.13,201.63,131.38,205Z"/><g id="teeth"><path class="cls-1" d="M155.38,234c4.12-4.39,8.47-4,13,0q3.51,11.64-7,13C155.38,247,151.39,239.67,155.38,234Z"/><path class="cls-1" d="M222.38,234c4.12-4.39,8.47-4,13,0q3.51,11.64-7,13C222.38,247,218.39,239.67,222.38,234Z"/><rect class="cls-1" x="172.38" y="231.98" width="20" height="14"/><rect class="cls-1" x="198.38" y="231.98" width="20" height="14"/><path class="cls-1" d="M159.38,271c3.83-3,7.07-2.39,10,0,4,6,5,15,3,18-6,1-12-3-14-7C156.38,279,157.38,272,159.38,271Z"/><path class="cls-1" d="M230.3,271c-3.83-3-7.07-2.39-10,0-4,6-5,15-3,18,6,1,12-3,14-7C233.3,279,232.3,272,230.3,271Z"/><path class="cls-1" d="M175.38,271h17v17c-6,4-11.33,4.09-17,0Z"/><path class="cls-1" d="M197.38,271h17v17c-6,4-11.33,4.09-17,0Z"/></g><path id="left_face" data-name="left face" class="cls-1" d="M163.38,27c-36,10-52.15,31.6-60,61-3,36,5,60,11,62,8-9,8-31,6-52,1.76-3.06,3.77-2.88,6,0,0,12.81.07,25.1,0,37-4,16-16,23-18,32-3.15,19.22,10.32,28.79,33,33q10.94,3.78,10,17c.05,6.85,3.71,10.19,10,11h70c13-4,8.31-15.78,1-29-1-5-5-15-15-20-9.86-7.67-14-21-11-44Z"/><path id="left_eye" data-name="left eye" class="cls-3" d="M126.38,148c9-34,55-39,58-10,2,8,1,20-1,25-9,31-45,31-57,5C124.45,160.9,124.17,154.17,126.38,148Z"/><path id="nose" class="cls-3" d="M195.38,176c-8.45,4.23-13.78,10.82-17,19a10.06,10.06,0,0,0,0,10c3.54,3.15,6.91,3.6,10,0,3-5,3.93-11.88,7-13,4,0,5,9,7,13,3.35,3.5,6.68,3.26,10,0,1.59-3,1.51-6.73,0-11C207.22,185.87,201.68,179.34,195.38,176Z"/><g id="upper_red_stripe" data-name="upper red stripe"><path class="cls-2" d="M167.38,26c5.06-1,9.75-2.34,14-2l40,96a104.45,104.45,0,0,0-13,10Z"/><path class="cls-2" d="M187.88,24a28.49,28.49,0,0,1,16.5,0l39,97a50.86,50.86,0,0,0-18-2Z"/></g><path id="right_head" data-name="right head" class="cls-1" d="M208.38,24c66,7,98,56,71,126-4.14-2.94-7.16-7.57-9-14V100c-1.84-3.25-3-1.79-4,1-2,11-1.93,24,0,38,2.06,7.45,10,16,16,26,1.95,4.24,1.47,10,0,15-.43,3.6-2.59,6.9-6,10a89.62,89.62,0,0,0-10-22V149c-4.27-11.15-9.94-20.29-18-26Z"/><g id="lowe_red_stripe" data-name="lowe red stripe"><path class="cls-2" d="M252.38,184c6.77-4,10.3-10.19,12-13l7,19c-.75,5.59-5.3,8.15-12,9Z"/><path class="cls-2" d="M247.38,186c-3.34.53-9.16-.53-15-1l10,27c4.61-4.56,8.1-8.92,10-13C251.08,192.77,250.39,188.79,247.38,186Z"/></g></svg>