<svg id="roger_pirates" data-name="roger pirates" xmlns="http://www.w3.org/2000/svg" viewBox="0 0 367.52 288.59"><defs><style>.cls-1,.cls-3{fill:#fff;}.cls-1,.cls-2,.cls-3,.cls-4{stroke:#000;stroke-miterlimit:10;}.cls-2,.cls-3{stroke-width:1.02px;}.cls-4{fill:#fef8c9;}#roger_pirates:hover{background-color:black; cursor:pointer; transition:background-color 1s ease;}</style></defs><title>roger</title><path id="top_right_bone" data-name="top right bone" class="cls-1" d="M229.5,63.08c5,3.17,9.21,7.71,13,13l31-39c27,8,32-24,6-22-2-24-33-17-21,11Z" transform="translate(0)"/><path id="top_left_bone" data-name="top left bone" class="cls-1" d="M137.59,63.08c-5,3.17-9.21,7.71-13,13l-31-39c-27,8-32-24-6-22,2-24,33-17,21,11Z" transform="translate(0)"/><path id="head" class="cls-1" d="M124.5,154.08c-13-21-11-56,3-76,19-31,94-32,113,2,14,22,15,57,2,74-1-6,8-19-10-33a26,26,0,0,1-6-7,43.25,43.25,0,0,1,1-19c-1-4-3-3-4,0-1,9-2.27,15.5,0,22,7,7,15,13,16,19,4.23,16.57-4.15,26.49-19,33-6.43,4.87,0,7,9,6,.52,1.58-3.88,3.7-10,6-2,4,10,1,11,3-2,3.3-6.63,4-13,3-6.6-5.89-17.51-9-30-11,13-18-22-16-8,0a74.44,74.44,0,0,0-31,11c-3.72.67-7.7-.17-12-3,1-1,11,1,12-2,0-3-9-3-11-6,1-1,12,1,12-4-4-8-18-2-23-26-2-15,11-20,17-30,3-7-1-14,0-21,0-4-5-4-4,0s2,18,0,21C118.5,132.08,123.5,142.08,124.5,154.08Z" transform="translate(0)"/><circle id="right_eye" data-name="right eye" class="cls-2" cx="213" cy="144.58" r="20.5"/><circle id="left_eye" data-name="left eye" class="cls-2" cx="154" cy="144.58" r="20.5"/><g id="bottom_right_bone" data-name="bottom right bone"><path class="cls-3" d="M224.5,190.08c4.47-.37,8.07-1.72,10-5l14,18c1,2.32-.44,2.65-3,2Z" transform="translate(0)"/><path class="cls-3" d="M265.5,252.08c10.06,1.17,19.2.76,27-2a116.67,116.67,0,0,0,17,16c-1.75,6.76-8.08,7.87-16,7-4,25-32,17-21-11Z" transform="translate(0)"/></g><g id="bottom_left_bone" data-name="bottom left bone"><path class="cls-3" d="M142.5,190.08c-4.47-.37-8.07-1.72-10-5l-14,18c-1,2.32.44,2.65,3,2Z" transform="translate(0)"/><path class="cls-3" d="M101.5,252.08c-10.06,1.17-19.2.76-27-2a116.67,116.67,0,0,1-17,16c1.75,6.76,8.08,7.87,16,7,4,25,32,17,21-11Z" transform="translate(0)"/></g><path id="chin" class="cls-3" d="M144.5,223.08c24,12,55,12,78,0,.92,5.8,0,11,0,15-3,33-77,32-78,0C144.5,232.08,143.66,227.22,144.5,223.08Z" transform="translate(0)"/><g id="teeth"><path class="cls-3" d="M161.5,197.08a22.13,22.13,0,0,0-10,7c2.63,1.92,6.08,2.76,10,3Z" transform="translate(0)"/><path class="cls-3" d="M205.5,197.08a22.13,22.13,0,0,1,10,7c-2.63,1.92-6.08,2.76-10,3Z" transform="translate(0)"/><path class="cls-3" d="M165.5,197.08c2-3,9.34-4,16-4v16c-6,1-14,0-17-2Z" transform="translate(0)"/><path class="cls-3" d="M201.5,197.08c-2-3-9.34-4-16-4v16c6,1,14,0,17-2Z" transform="translate(0)"/><path class="cls-3" d="M206.5,210.08c4.89-.57,9.42-1.62,13-4,1.64,1.43,2.43,6.73,3,13-4,3-9.2,4.79-15,6Z" transform="translate(0)"/><path class="cls-3" d="M160.5,210.08c-4.89-.57-9.42-1.62-13-4-1.64,1.43-2.43,6.73-3,13,4,3,9.2,4.79,15,6Z" transform="translate(0)"/><path class="cls-3" d="M185.5,212.08a60.24,60.24,0,0,0,18-1l1,15c-6.33,1-12.67,2.33-19,2Z" transform="translate(0)"/><path class="cls-3" d="M181.5,212.08a60.24,60.24,0,0,1-18-1l-1,15c6.33,1,12.67,2.33,19,2Z" transform="translate(0)"/></g><path id="mid_mustache" data-name="mid mustache" class="cls-4" d="M149.5,190.08c22.56-13.18,44.9-13.45,67,0,13,5,30,21,49,32,26,5,17-29,2-21-3,1.84-4.5,4.42-4,8,2.11,2,3.43,1.34,4-2,8-13,21,14,0,12l-14-9c-1.64-3.9-1.42-8.29,0-13,7-21,38-21,49,1,12.22,34.74-6,55-37,50-29-4-33-61-82-59-37-1-45,26-63,47-15,19-64,24-60-29,5-31,50-35,54-6v8c-13.39,10.49-23,14-26,3,0-9,9-12,12-3,1,2,4,1,3-3-5-9-14-8-18,1-2.49,13.19,4,17.4,17,15C121.5,211.08,134.5,198.08,149.5,190.08Z" transform="translate(0)"/><path id="right_stache" data-name="right stache" class="cls-4" d="M295.5,248.08c5.33-4.32,9.64-9.41,12-16,6,23,45,21,37-2-7-13-24-3-17,5,2,1,1-4,3-6,7-5,16,5,9,12-27,17-49-38-1-36,36,4,40,64,0,67C321.5,272.08,307.2,263.85,295.5,248.08Z" transform="translate(0)"/><path id="right_stache-2" data-name="right stache" class="cls-4" d="M72,248.08c-5.33-4.32-9.64-9.41-12-16-6,23-45,21-37-2,7-13,24-3,17,5-2,1-1-4-3-6-7-5-16,5-9,12,27,17,49-38,1-36-36,4-40,64,0,67C46,272.08,60.32,263.85,72,248.08Z" transform="translate(0)"/></svg>