<svg id="straw_hat_pirates" data-name="straw hat pirates" xmlns="http://www.w3.org/2000/svg" viewBox="0 0 314.16 273.77"><defs><style>.cls-1{fill:#fff;}.cls-1,.cls-2,.cls-3,.cls-4{stroke:#000;stroke-miterlimit:10;}.cls-2{fill:#ffd120;}.cls-3{fill:#f01;}</style></defs><title>straw hat</title><path id="top_left_bone" data-name="top left bone" class="cls-1" d="M21.48,22.79c-5-17,17-30,28-17,7.14,7,7.32,15.35,0,25l29,27c-6,7-8,17-11,27l-37-34c-10.83,8.54-20.19,7.72-28-3C-3.52,33.79,4.48,21.79,21.48,22.79Z"/><path id="top_right_bone" data-name="top right bone" class="cls-1" d="M236.48,57.79l29-26c-11-12-6-28,12-31,13.69,1.63,17.55,10.36,16,23,16.85-1.42,23,10,19,24-6,13-20,13-29,3l-36,34C245.5,74,242.08,64.73,236.48,57.79Z"/><path id="top_hat" data-name="top hat" class="cls-2" d="M79.48,64.79h157c-17.47-32.26-43.76-49.24-80-49C118.48,14.79,93.48,35.79,79.48,64.79Z"/><g id="hat_holes" data-name="hat holes"><path id="hat_hole_1" data-name="hat hole 1" d="M203.48,45.79c5.22,3.94,8.39,9.39,10,16,1.87,1.17,3.18.75,4-1-1.28-6.38-4.77-12.35-10-18C204.59,41.42,203.41,42.65,203.48,45.79Z"/><path id="hat_hole_2" data-name="hat hole 2" d="M190.48,51.79c-1-3,2-5,4-2a24,24,0,0,1,3,9c0,3-2,3-4,1A18,18,0,0,0,190.48,51.79Z"/><path id="hat_hole_3" data-name="hat hole 3" d="M131.48,50.79c3-2,5-1,4,2a25.85,25.85,0,0,0-3,5c-2,2-4,2-4-2C129.48,53.79,130.62,52.48,131.48,50.79Z"/><path id="hat_hole_4" data-name="hat hole 4" d="M121.48,45.79a2.12,2.12,0,0,1,3,3,68,68,0,0,0-7,12c-2.68,1-4,.34-3-3S118.29,50.33,121.48,45.79Z"/><path id="hat_hole_5" data-name="hat hole 5" d="M99.48,55.79c0,3,1,4,4,2a49,49,0,0,1,12-15c.41-3.25-1.12-4-4-3C105.81,45.71,101.77,51.05,99.48,55.79Z"/></g><path id="red_stripe" data-name="red stripe" class="cls-3" d="M77.48,68.79h161c3.77,5.68,5.29,12.89,6,22h-173C72,81.85,72.91,75.64,77.48,68.79Z"/><path id="brim" class="cls-2" d="M31.48,94.79h254c7,2,6,11,0,12h-254C26.48,105.79,25.48,96.79,31.48,94.79Z"/><path id="face" class="cls-1" d="M71.48,109.79h173c-12,53-44.85,75.08-86,75C115.48,184.79,79.15,158.72,71.48,109.79Z"/><path id="nose" class="cls-4" d="M166.48,167.79c0,3.31-2,6-8,7-6,0-9.21-3.26-9-7,.19-3.31,4-6,9-6S166.48,164.48,166.48,167.79Z"/><circle id="right_eye" data-name="right eye" class="cls-4" cx="192.48" cy="138.79" r="23"/><circle id="left_eye" data-name="left eye" class="cls-4" cx="123.48" cy="138.79" r="23"/><path id="bottom_left_bone" data-name="bottom left bone" class="cls-1" d="M106.48,178.79l-48,45c-9.18-10-18.52-9.71-28,0-7,13,0,30,19,26-6,16,10,28,25,20,9.44-6.61,11.28-15.37,3-27l22-21A105.55,105.55,0,0,1,106.48,178.79Z"/><path id="bottom_right_eye" data-name="bottom right eye" class="cls-1" d="M206.78,180.69l49,43.9c9-10.23,18.3-10.12,28-.63,7.3,12.84.68,30-18.4,26.42,6.36,15.86-9.37,28.22-24.55,20.56-9.58-6.39-11.62-15.1-3.6-26.92l-22.47-20.5A105.74,105.74,0,0,0,206.78,180.69Z"/><path id="chin" class="cls-1" d="M103.48,214.79c31,22.6,75,22,108,2-.37,34.49-18.39,52.22-52,55C118.87,269.1,100.8,249.66,103.48,214.79Z"/><g id="teeth"><path class="cls-1" d="M112.48,178.79a82.79,82.79,0,0,0,19,7c-1.76,3.48-3,13-4,17-7.94-3.42-15.27-6.58-21-10A38.47,38.47,0,0,1,112.48,178.79Z"/><path class="cls-1" d="M134.48,186.79a62.62,62.62,0,0,0,21,2v19a98.34,98.34,0,0,1-24-4A96.83,96.83,0,0,1,134.48,186.79Z"/><path class="cls-1" d="M159.48,188.79v19a87.74,87.74,0,0,0,22-3c-1-3-2.42-10.72-3-18A47,47,0,0,1,159.48,188.79Z"/><path class="cls-1" d="M201.48,178.79c2.41,5.77,4.23,11.18,6,16a100.6,100.6,0,0,1-22,9c-2.15-5.85-4-12-4-18A51.27,51.27,0,0,0,201.48,178.79Z"/><path class="cls-1" d="M207.48,198.79c-6.23,3.59-13.82,6.42-22,9a119.37,119.37,0,0,1,2,16,118.91,118.91,0,0,0,23-11C209.83,206.71,209,201.27,207.48,198.79Z"/><path class="cls-1" d="M159.48,210.79a158,158,0,0,0,23-2,67.3,67.3,0,0,0,2,16,84,84,0,0,1-25,4C159.38,223.38,159.56,217.44,159.48,210.79Z"/><path class="cls-1" d="M128.48,223.79a78.08,78.08,0,0,0,28,5v-18c-7.91.63-16.71-.66-26-3A87.6,87.6,0,0,1,128.48,223.79Z"/><path class="cls-1" d="M105.48,195.79a152.92,152.92,0,0,0,22,11,62,62,0,0,0-2,16c-8.57-3.75-16.36-7.87-22-13C104.37,205,105.07,200.34,105.48,195.79Z"/></g></svg>