<svg id="sun_pirates" data-name="sun pirates" xmlns="http://www.w3.org/2000/svg" viewBox="0 0 331.38 324.74"><defs><style>.cls-1{fill:#b20b23;} #sun_pirates:hover{box-shadow: 3px 3px 5px 6px #ccc;}#sun_pirates:hover{background-color:black; cursor:pointer; transition:background-color 1s ease;}</style></defs><title>sun</title><circle id="red_circle" data-name="red circle" class="cls-1" cx="159.16" cy="162.38" r="99"/><path id="right_flame" data-name="right flame" class="cls-1" d="M255.16,117.38c16,31,15,74-11,112-2,42,52,47,69,2-25,17-49,9-46-20,10-14,21.42-17.22,33-7,14,7,32.76-9.23,31-34-16,20-38,22-45-1-5-24.22,0-42.09,21-50,15.63-3.48,22,6,19,21,13-14,2-49-36-38C273.16,110.38,275.16,126.38,255.16,117.38Z"/><path id="top_flame" data-name="top flame" class="cls-1" d="M246.16,100.38c-50-70-171-57-190,41-12,21-48,19-56-9-2-30,16-27,15-50,8-2-9,43,17,47,23,0,15-34,29-45-27-9-24-40-8-49-2,34,48,42,40,0-4-10-17-18-30-19,16-10,43-8,49,8,5,10-11,18,0,30,15,5,24-3,13-15-11-25,35-53,54-32,7.65,6.68,13.52,6.87,17-1,11,22-34,13-15,38,20,13,42.05,6.69,42-26,10.83,7.86,12,25-1,38A29,29,0,0,0,254,55c13.12-3.64,7.12-31.64,12.12-31.64,5,28,22,20,15,53C274.59,91.07,260.16,101.38,246.16,100.38Z"/><path id="bottom_flame" data-name="bottom flame" class="cls-1" d="M247.16,266.38c8.45,11.15,5,22-5,25,9-20-10-33-25-20,18,23,1,44-18,40,19-14,4-37-17-32-22,10-17,39,7,36-27,18-58,9-52-18,11-25-30-45-34-3-12,30-55,11-56-13,13,13,25,7,29-6,5-22-27-36-41-11-17-1-27.72-12.67-30-26,8.28,6.52,16.61,6.79,25,1,30-24-12-51-19-23-11-12,2-29,23-30-2.49-18.92-13.8-19.92-30-11,8-20,37-20,50,1,11,89,120,121,178,63C230.16,254.38,238.16,257.38,247.16,266.38Z"/></svg>