<svg id="whiteBeard" xmlns="http://www.w3.org/2000/svg" viewBox="0 0 353.99 354.22"><defs><style>.cls-1{stroke:#000;stroke-miterlimit:10;}.cls-2{fill:#d0d3df;}.cls-3{fill:#fff;}#whiteBeard:hover{background-color:black; cursor:pointer; transition:background-color 1s ease;}</style></defs><title>whitebeard</title><path id="black_outline" data-name="black outline" class="cls-1" d="M166.64,81.44v-51c-23.5-6.5-12.5-38.5,11-27,19.5-12.5,37.5,18.5,12,26v52c40.5,7.5,56.44,34.2,52.5,72.5q36-8,78-36c-16,21.41-35.46,38.5-57,53h62c5-23,39-9,25,12,11,25-16,34-27,13h-98c-5.57,17.51-7.54,36.31-7,56h-28v73c25,6,6,40-12,25-23,15-35-23-12-25v-72l-27-1c1.14-19.51-.25-38.6-6-57l-104,1c-4,21-40,11-25-13-13-18,15-37,26-12h65a284.36,284.36,0,0,1-67-57c27,18,58,35,89,39C114,114.52,128.54,89.25,166.64,81.44Z"/><path id="top_bone" data-name="top bone" class="cls-2" d="M168.64,81.44v-54c-23-4-7-36,10-19,14-16,35,13,9,19v54A80.48,80.48,0,0,0,168.64,81.44Z"/><path id="right_bone" data-name="right bone" class="cls-2" d="M256.14,174.94l72-1c0-22,33-10,18,9,14,16-11,35-19,10h-102C232.14,181.94,247.14,178.94,256.14,174.94Z"/><path id="bottom_bone" data-name="bottom bone" class="cls-2" d="M169.64,252.44h18v76c20,0,14,31-9,18-17,12-32-12-9-20Z"/><path id="left_bone" data-name="left bone" class="cls-2" d="M103.14,173.94H26.32c0-22-33-10-18,9-14,16,11,35,19,10H133.14C129.14,181.94,114.14,181.94,103.14,173.94Z"/><path id="chin" class="cls-2" d="M136.14,193.94c5.56,16.34,7.44,35,7,55h72a157.37,157.37,0,0,1,7-54C195.14,219.94,164.14,218.94,136.14,193.94Z"/><path id="head" class="cls-2" d="M169.14,157.94c-16.82,0-33.21-.72-48-4-6-42,14.15-67.14,58-70,39,1,65,28,59,71-18.34,2.62-39,4-51,3l-9-16Z"/><path id="left_eye" data-name="left eye" class="cls-1" d="M166.14,141.94c-6-2-22-2-37-12,1.51,6.32,5.14,11.4,13,14C150.77,145.51,158.82,145,166.14,141.94Z"/><path id="right_eye" data-name="right eye" class="cls-1" d="M192.14,141.94c6-2,22-2,37-12-1.52,6.32-5.15,11.4-13,14C207.51,145.51,199.46,145,192.14,141.94Z"/><path id="mustache" class="cls-3" d="M52.14,132.94c63,40,195,40,251-1C255.14,201.94,120.14,209.94,52.14,132.94Z"/><g id="teeth"><path class="cls-3" d="M134.14,185.94c6.92,1.4,12,3,14,3l-2,9C140.69,194.71,136.33,190.9,134.14,185.94Z"/><path class="cls-3" d="M151.14,188.94c4.75,1.51,10,2,17,2l-2,17a65.5,65.5,0,0,1-17-8Z"/><path class="cls-3" d="M171.14,190.94h17l2,18a131.46,131.46,0,0,1-21,0Z"/><path class="cls-3" d="M192.14,190.94c6.46-.08,12.53-.31,15-2a29.45,29.45,0,0,1,1,13c-4,2.72-9.2,4.56-15,6Z"/><path class="cls-3" d="M211.14,188.94c3.91-.23,9.31-1.51,15-3,.59.09-13.9,15.19-14,14C212.05,199,211.6,188.92,211.14,188.94Z"/></g></svg>